<svg width="203" height="24" viewBox="0 0 203 24" fill="none" xmlns="http://www.w3.org/2000/svg">
<g clip-path="url(#clip0_550_1412)">
<mask id="mask0_550_1412" style="mask-type:luminance" maskUnits="userSpaceOnUse" x="0" y="0" width="203" height="24">
<path d="M203 0H0V24H203V0Z" fill="white"/>
</mask>
<g mask="url(#mask0_550_1412)">
<mask id="mask1_550_1412" style="mask-type:luminance" maskUnits="userSpaceOnUse" x="106" y="0" width="14" height="15">
<path d="M120.002 0H106.059V14.2826H120.002V0Z" fill="white"/>
</mask>
<g mask="url(#mask1_550_1412)">
<path fill-rule="evenodd" clip-rule="evenodd" d="M115.43 14.2826V7.74648L109.259 14.2826L106.059 10.8935L112.23 4.35739H106.059V0H120.002V14.2826H115.43Z" fill="#F9F9F9"/>
</g>
<path fill-rule="evenodd" clip-rule="evenodd" d="M0 22.7069H15.191V19.1386H3.98085V0H0V22.7069ZM39.6517 11.7146C39.6517 9.43908 39.1995 7.43355 38.2953 5.69802C37.4249 3.99951 36.1157 2.59861 34.5211 1.6592C32.842 0.683552 30.9516 0.188438 29.0367 0.222711C27.0883 0.19057 25.1651 0.692589 23.454 1.68002C21.8301 2.6231 20.4885 4.02956 19.5815 5.73965C18.6385 7.52571 18.1571 9.54361 18.1858 11.5897C18.1541 13.6547 18.6499 15.6903 19.6208 17.4814C20.5808 19.2202 21.9933 20.6296 23.6894 21.541C25.445 22.513 27.4763 22.9988 29.7832 22.9983C31.4487 23.0259 33.1038 22.7149 34.6587 22.0823C36.0468 21.5124 37.2771 20.5816 38.2363 19.3759L35.6022 16.1708C34.1089 17.7809 32.2087 18.5859 29.9016 18.5857C28.0931 18.5857 26.5795 18.1069 25.3608 17.1492C24.1552 16.2149 23.3436 14.8172 23.1002 13.2562H39.573C39.6251 12.59 39.6514 12.0764 39.6517 11.7156V11.7146ZM29.0367 4.38644C30.6352 4.38644 31.9719 4.88609 33.0468 5.88538C34.1248 6.89204 34.8113 8.28687 34.9732 9.79929H23.0608C23.2348 8.26789 23.9456 6.86157 25.0524 5.85903C26.1592 4.85649 27.5812 4.33091 29.0367 4.38644ZM60.4885 0.472535L53.7657 16.9609L47.2394 0.472535H42.1285L51.132 22.7069H56.2036L65.2062 0.472535H60.4885ZM88.9917 11.7146C88.9917 9.43908 88.5395 7.43355 87.6353 5.69802C86.7647 3.99944 85.4555 2.59854 83.8606 1.6592C82.1815 0.683552 80.2912 0.188438 78.3762 0.222711C76.4278 0.19057 74.5047 0.692589 72.7935 1.68002C71.1697 2.62311 69.828 4.02956 68.921 5.73965C67.978 7.52569 67.4966 9.54361 67.5254 11.5897C67.4938 13.6547 67.9897 15.6904 68.9608 17.4814C69.9208 19.2203 71.3333 20.6296 73.0294 21.541C74.785 22.513 76.8163 22.9988 79.1232 22.9983C80.7886 23.0258 82.4435 22.7148 83.9982 22.0823C85.3863 21.5124 86.6166 20.5816 87.5759 19.3759L84.9418 16.1708C83.4484 17.7809 81.5482 18.5859 79.2411 18.5857C77.4327 18.5857 75.9191 18.1069 74.7003 17.1492C73.4947 16.2149 72.6831 14.8172 72.4397 13.2562H88.9126C88.9647 12.59 88.9909 12.0764 88.9912 11.7156L88.9917 11.7146ZM78.3762 4.38644C79.9746 4.38644 81.3113 4.88609 82.3863 5.88538C83.4643 6.89204 84.1509 8.28687 84.3128 9.79929H72.4004C72.5743 8.26789 73.2851 6.86157 74.3919 5.85903C75.4987 4.85649 76.9208 4.33091 78.3762 4.38644ZM94.9366 22.7069H110.129V19.1386H98.9184V0H94.9366V22.7069Z" fill="#F9F9F9"/>
<path d="M134.181 9.10125C133.474 9.10125 132.834 8.94792 132.261 8.64125C131.694 8.32792 131.248 7.89792 130.921 7.35125C130.601 6.80458 130.441 6.18792 130.441 5.50125C130.441 4.81458 130.604 4.19792 130.931 3.65125C131.258 3.10458 131.704 2.67792 132.271 2.37125C132.844 2.05792 133.484 1.90125 134.191 1.90125C134.764 1.90125 135.288 2.00125 135.761 2.20125C136.234 2.40125 136.634 2.69125 136.961 3.07125L136.121 3.86125C135.614 3.31458 134.991 3.04125 134.251 3.04125C133.771 3.04125 133.341 3.14792 132.961 3.36125C132.581 3.56792 132.284 3.85792 132.071 4.23125C131.858 4.60458 131.751 5.02792 131.751 5.50125C131.751 5.97458 131.858 6.39792 132.071 6.77125C132.284 7.14458 132.581 7.43792 132.961 7.65125C133.341 7.85792 133.771 7.96125 134.251 7.96125C134.991 7.96125 135.614 7.68458 136.121 7.13125L136.961 7.93125C136.634 8.31125 136.231 8.60125 135.751 8.80125C135.278 9.00125 134.754 9.10125 134.181 9.10125ZM142.191 9.07125C141.651 9.07125 141.165 8.95458 140.731 8.72125C140.298 8.48792 139.958 8.16458 139.711 7.75125C139.471 7.33125 139.351 6.85792 139.351 6.33125C139.351 5.80458 139.471 5.33458 139.711 4.92125C139.958 4.50792 140.298 4.18458 140.731 3.95125C141.165 3.71792 141.651 3.60125 142.191 3.60125C142.738 3.60125 143.228 3.71792 143.661 3.95125C144.095 4.18458 144.431 4.50792 144.671 4.92125C144.918 5.33458 145.041 5.80458 145.041 6.33125C145.041 6.85792 144.918 7.33125 144.671 7.75125C144.431 8.16458 144.095 8.48792 143.661 8.72125C143.228 8.95458 142.738 9.07125 142.191 9.07125ZM142.191 8.00125C142.651 8.00125 143.031 7.84792 143.331 7.54125C143.631 7.23458 143.781 6.83125 143.781 6.33125C143.781 5.83125 143.631 5.42792 143.331 5.12125C143.031 4.81458 142.651 4.66125 142.191 4.66125C141.731 4.66125 141.351 4.81458 141.051 5.12125C140.758 5.42792 140.611 5.83125 140.611 6.33125C140.611 6.83125 140.758 7.23458 141.051 7.54125C141.351 7.84792 141.731 8.00125 142.191 8.00125ZM151.167 3.60125C151.84 3.60125 152.38 3.79792 152.787 4.19125C153.193 4.58458 153.397 5.16792 153.397 5.94125V9.00125H152.147V6.10125C152.147 5.63458 152.037 5.28458 151.817 5.05125C151.597 4.81125 151.283 4.69125 150.877 4.69125C150.417 4.69125 150.053 4.83125 149.787 5.11125C149.52 5.38458 149.387 5.78125 149.387 6.30125V9.00125H148.137V3.66125H149.327V4.35125C149.533 4.10458 149.793 3.91792 150.107 3.79125C150.42 3.66458 150.773 3.60125 151.167 3.60125ZM158.532 9.07125C158.099 9.07125 157.676 9.01458 157.262 8.90125C156.849 8.78792 156.519 8.64458 156.272 8.47125L156.752 7.52125C156.992 7.68125 157.279 7.81125 157.612 7.91125C157.952 8.00458 158.286 8.05125 158.612 8.05125C159.359 8.05125 159.732 7.85458 159.732 7.46125C159.732 7.27458 159.636 7.14458 159.442 7.07125C159.256 6.99792 158.952 6.92792 158.532 6.86125C158.092 6.79458 157.732 6.71792 157.452 6.63125C157.179 6.54458 156.939 6.39458 156.732 6.18125C156.532 5.96125 156.432 5.65792 156.432 5.27125C156.432 4.76458 156.642 4.36125 157.062 4.06125C157.489 3.75458 158.062 3.60125 158.782 3.60125C159.149 3.60125 159.516 3.64458 159.882 3.73125C160.249 3.81125 160.549 3.92125 160.782 4.06125L160.302 5.01125C159.849 4.74458 159.339 4.61125 158.772 4.61125C158.406 4.61125 158.126 4.66792 157.932 4.78125C157.746 4.88792 157.652 5.03125 157.652 5.21125C157.652 5.41125 157.752 5.55458 157.952 5.64125C158.159 5.72125 158.476 5.79792 158.902 5.87125C159.329 5.93792 159.679 6.01458 159.952 6.10125C160.226 6.18792 160.459 6.33458 160.652 6.54125C160.852 6.74792 160.952 7.04125 160.952 7.42125C160.952 7.92125 160.736 8.32125 160.302 8.62125C159.869 8.92125 159.279 9.07125 158.532 9.07125ZM169.099 3.66125V9.00125H167.909V8.32125C167.709 8.56125 167.459 8.74792 167.159 8.88125C166.859 9.00792 166.535 9.07125 166.189 9.07125C165.475 9.07125 164.912 8.87458 164.499 8.48125C164.092 8.08125 163.889 7.49125 163.889 6.71125V3.66125H165.139V6.54125C165.139 7.02125 165.245 7.38125 165.459 7.62125C165.679 7.85458 165.989 7.97125 166.389 7.97125C166.835 7.97125 167.189 7.83458 167.449 7.56125C167.715 7.28125 167.849 6.88125 167.849 6.36125V3.66125H169.099ZM172.635 1.58125H173.885V9.00125H172.635V1.58125ZM180.9 8.71125C180.753 8.83125 180.573 8.92125 180.36 8.98125C180.153 9.04125 179.933 9.07125 179.7 9.07125C179.113 9.07125 178.66 8.91792 178.34 8.61125C178.02 8.30458 177.86 7.85792 177.86 7.27125V4.70125H176.98V3.70125H177.86V2.48125H179.11V3.70125H180.54V4.70125H179.11V7.24125C179.11 7.50125 179.173 7.70125 179.3 7.84125C179.426 7.97458 179.61 8.04125 179.85 8.04125C180.13 8.04125 180.363 7.96792 180.55 7.82125L180.9 8.71125ZM183.828 3.66125H185.078V9.00125H183.828V3.66125ZM184.458 2.78125C184.231 2.78125 184.041 2.71125 183.888 2.57125C183.735 2.42458 183.658 2.24458 183.658 2.03125C183.658 1.81792 183.735 1.64125 183.888 1.50125C184.041 1.35458 184.231 1.28125 184.458 1.28125C184.685 1.28125 184.875 1.35125 185.028 1.49125C185.181 1.62458 185.258 1.79458 185.258 2.00125C185.258 2.22125 185.181 2.40792 185.028 2.56125C184.881 2.70792 184.691 2.78125 184.458 2.78125ZM191.649 3.60125C192.322 3.60125 192.862 3.79792 193.269 4.19125C193.675 4.58458 193.879 5.16792 193.879 5.94125V9.00125H192.629V6.10125C192.629 5.63458 192.519 5.28458 192.299 5.05125C192.079 4.81125 191.765 4.69125 191.359 4.69125C190.899 4.69125 190.535 4.83125 190.269 5.11125C190.002 5.38458 189.869 5.78125 189.869 6.30125V9.00125H188.619V3.66125H189.809V4.35125C190.015 4.10458 190.275 3.91792 190.589 3.79125C190.902 3.66458 191.255 3.60125 191.649 3.60125ZM202.713 3.66125V8.19125C202.713 10.0712 201.753 11.0113 199.833 11.0113C199.32 11.0113 198.833 10.9446 198.373 10.8113C197.913 10.6846 197.533 10.498 197.233 10.2513L197.793 9.31125C198.027 9.50458 198.32 9.65792 198.673 9.77125C199.033 9.89125 199.397 9.95125 199.763 9.95125C200.35 9.95125 200.78 9.81792 201.053 9.55125C201.327 9.28458 201.463 8.87792 201.463 8.33125V8.05125C201.25 8.28458 200.99 8.46125 200.683 8.58125C200.377 8.70125 200.04 8.76125 199.673 8.76125C199.167 8.76125 198.707 8.65458 198.293 8.44125C197.887 8.22125 197.563 7.91458 197.323 7.52125C197.09 7.12792 196.973 6.67792 196.973 6.17125C196.973 5.66458 197.09 5.21792 197.323 4.83125C197.563 4.43792 197.887 4.13458 198.293 3.92125C198.707 3.70792 199.167 3.60125 199.673 3.60125C200.06 3.60125 200.41 3.66458 200.723 3.79125C201.043 3.91792 201.31 4.11125 201.523 4.37125V3.66125H202.713ZM199.863 7.70125C200.337 7.70125 200.723 7.56125 201.023 7.28125C201.33 6.99458 201.483 6.62458 201.483 6.17125C201.483 5.72458 201.33 5.36125 201.023 5.08125C200.723 4.80125 200.337 4.66125 199.863 4.66125C199.383 4.66125 198.99 4.80125 198.683 5.08125C198.383 5.36125 198.233 5.72458 198.233 6.17125C198.233 6.62458 198.383 6.99458 198.683 7.28125C198.99 7.56125 199.383 7.70125 199.863 7.70125ZM135.721 18.4212H136.951V21.2112C136.591 21.4979 136.171 21.718 135.691 21.8713C135.211 22.0246 134.718 22.1012 134.211 22.1012C133.498 22.1012 132.854 21.9479 132.281 21.6412C131.708 21.3279 131.258 20.8979 130.931 20.3512C130.604 19.8045 130.441 19.1879 130.441 18.5012C130.441 17.8145 130.604 17.1979 130.931 16.6512C131.258 16.1045 131.708 15.678 132.281 15.3713C132.861 15.058 133.511 14.9012 134.231 14.9012C134.818 14.9012 135.351 14.9979 135.831 15.1912C136.311 15.3845 136.714 15.668 137.041 16.0413L136.221 16.8413C135.688 16.308 135.044 16.0413 134.291 16.0413C133.798 16.0413 133.358 16.1446 132.971 16.3513C132.591 16.558 132.291 16.8479 132.071 17.2212C131.858 17.5945 131.751 18.0212 131.751 18.5012C131.751 18.9679 131.858 19.3879 132.071 19.7612C132.291 20.1345 132.591 20.4279 132.971 20.6412C133.358 20.8545 133.794 20.9612 134.281 20.9612C134.828 20.9612 135.308 20.8412 135.721 20.6012V18.4212ZM141.636 17.4412C141.996 16.8812 142.629 16.6013 143.536 16.6013V17.7913C143.429 17.7713 143.332 17.7612 143.246 17.7612C142.759 17.7612 142.379 17.9045 142.106 18.1912C141.832 18.4712 141.696 18.8779 141.696 19.4112V22.0012H140.446V16.6613H141.636V17.4412ZM148.847 22.0712C148.307 22.0712 147.821 21.9545 147.387 21.7212C146.954 21.4879 146.614 21.1645 146.367 20.7512C146.127 20.3312 146.007 19.8579 146.007 19.3312C146.007 18.8045 146.127 18.3345 146.367 17.9212C146.614 17.5079 146.954 17.1846 147.387 16.9513C147.821 16.718 148.307 16.6013 148.847 16.6013C149.394 16.6013 149.884 16.718 150.317 16.9513C150.751 17.1846 151.087 17.5079 151.327 17.9212C151.574 18.3345 151.697 18.8045 151.697 19.3312C151.697 19.8579 151.574 20.3312 151.327 20.7512C151.087 21.1645 150.751 21.4879 150.317 21.7212C149.884 21.9545 149.394 22.0712 148.847 22.0712ZM148.847 21.0012C149.307 21.0012 149.687 20.848 149.987 20.5413C150.287 20.2346 150.437 19.8312 150.437 19.3312C150.437 18.8312 150.287 18.428 149.987 18.1213C149.687 17.8146 149.307 17.6612 148.847 17.6612C148.387 17.6612 148.007 17.8146 147.707 18.1213C147.414 18.428 147.267 18.8312 147.267 19.3312C147.267 19.8312 147.414 20.2346 147.707 20.5413C148.007 20.848 148.387 21.0012 148.847 21.0012ZM159.962 16.6613V22.0012H158.772V21.3212C158.572 21.5612 158.322 21.7479 158.022 21.8812C157.722 22.0079 157.399 22.0712 157.052 22.0712C156.339 22.0712 155.776 21.8745 155.362 21.4812C154.956 21.0812 154.752 20.4912 154.752 19.7112V16.6613H156.002V19.5413C156.002 20.0213 156.109 20.3813 156.322 20.6213C156.542 20.8546 156.852 20.9712 157.252 20.9712C157.699 20.9712 158.052 20.8345 158.312 20.5612C158.579 20.2812 158.712 19.8812 158.712 19.3612V16.6613H159.962ZM166.459 16.6013C166.979 16.6013 167.442 16.7146 167.849 16.9413C168.262 17.168 168.586 17.4879 168.819 17.9012C169.052 18.3145 169.169 18.7912 169.169 19.3312C169.169 19.8712 169.052 20.3512 168.819 20.7712C168.586 21.1845 168.262 21.5045 167.849 21.7312C167.442 21.9579 166.979 22.0712 166.459 22.0712C165.739 22.0712 165.169 21.8312 164.749 21.3512V23.9412H163.499V16.6613H164.689V17.3612C164.896 17.1079 165.149 16.918 165.449 16.7913C165.756 16.6646 166.092 16.6013 166.459 16.6013ZM166.319 21.0012C166.779 21.0012 167.156 20.848 167.449 20.5413C167.749 20.2346 167.899 19.8312 167.899 19.3312C167.899 18.8312 167.749 18.428 167.449 18.1213C167.156 17.8146 166.779 17.6612 166.319 17.6612C166.019 17.6612 165.749 17.7313 165.509 17.8713C165.269 18.0046 165.079 18.198 164.939 18.4513C164.799 18.7046 164.729 18.9979 164.729 19.3312C164.729 19.6645 164.799 19.9579 164.939 20.2112C165.079 20.4645 165.269 20.6612 165.509 20.8012C165.749 20.9345 166.019 21.0012 166.319 21.0012Z" fill="#F9F9F9"/>
</g>
</g>
<defs>
<clipPath id="clip0_550_1412">
<rect width="203" height="24" fill="white"/>
</clipPath>
</defs>
</svg>
