<svg width="341" height="40" viewBox="0 0 341 40" fill="none" xmlns="http://www.w3.org/2000/svg">
<g clip-path="url(#clip0_550_2813)">
<mask id="mask0_550_2813" style="mask-type:luminance" maskUnits="userSpaceOnUse" x="0" y="0" width="341" height="40">
<path d="M341 0H0V40H341V0Z" fill="white"/>
</mask>
<g mask="url(#mask0_550_2813)">
<mask id="mask1_550_2813" style="mask-type:luminance" maskUnits="userSpaceOnUse" x="178" y="0" width="24" height="24">
<path d="M201.578 0H178.156V23.8043H201.578V0Z" fill="white"/>
</mask>
<g mask="url(#mask1_550_2813)">
<path fill-rule="evenodd" clip-rule="evenodd" d="M193.898 23.8043V12.9108L183.532 23.8043L178.156 18.1558L188.522 7.26232H178.156V0H201.578V23.8043H193.898Z" fill="black"/>
</g>
<path fill-rule="evenodd" clip-rule="evenodd" d="M0 37.8448H25.5179V31.8977H6.68704V0H0V37.8448ZM66.607 19.5243C66.607 15.7318 65.8474 12.3892 64.3286 9.4967C62.8665 6.66585 60.6673 4.33102 57.9886 2.76533C55.1681 1.13925 51.9926 0.314063 48.7759 0.371185C45.503 0.317617 42.2724 1.15431 39.3981 2.80003C36.6703 4.37183 34.4166 6.71593 32.8931 9.56608C31.309 12.5428 30.5004 15.906 30.5486 19.3162C30.4953 22.7578 31.3282 26.1505 32.9591 29.1357C34.5717 32.0337 36.9444 34.3827 39.7935 35.9017C42.7426 37.5217 46.1548 38.3313 50.0299 38.3305C52.8276 38.3765 55.6079 37.8582 58.2198 36.8038C60.5515 35.854 62.6182 34.3027 64.2294 32.2932L59.8047 26.9513C57.2962 29.6348 54.1043 30.9765 50.2288 30.9762C47.1909 30.9762 44.6483 30.1782 42.6011 28.582C40.576 27.0248 39.2126 24.6953 38.8038 22.0937H66.4748C66.5624 20.9833 66.6065 20.1273 66.607 19.526V19.5243ZM48.7759 7.31073C51.4611 7.31073 53.7065 8.14348 55.5121 9.80897C57.3229 11.4867 58.4761 13.8114 58.7481 16.3321H38.7376C39.0299 13.7798 40.2239 11.4359 42.0831 9.76505C43.9423 8.09415 46.331 7.21818 48.7759 7.31073ZM101.609 0.787558L90.3158 28.2682L79.3529 0.787558H70.7676L85.8917 37.8448H94.411L109.534 0.787558H101.609ZM149.489 19.5243C149.489 15.7318 148.729 12.3892 147.21 9.4967C145.748 6.66573 143.548 4.3309 140.869 2.76533C138.049 1.13925 134.873 0.314063 131.657 0.371185C128.384 0.317617 125.153 1.15431 122.279 2.80003C119.551 4.37185 117.297 6.71593 115.774 9.56608C114.19 12.5428 113.381 15.906 113.429 19.3162C113.376 22.7578 114.209 26.1507 115.841 29.1357C117.453 32.0338 119.826 34.3827 122.675 35.9017C125.624 37.5217 129.036 38.3313 132.911 38.3305C135.709 38.3763 138.489 37.858 141.1 36.8038C143.432 35.854 145.499 34.3027 147.11 32.2932L142.685 26.9513C140.177 29.6348 136.985 30.9765 133.109 30.9762C130.072 30.9762 127.529 30.1782 125.482 28.582C123.457 27.0248 122.093 24.6953 121.684 22.0937H149.356C149.443 20.9833 149.487 20.1273 149.488 19.526L149.489 19.5243ZM131.657 7.31073C134.342 7.31073 136.587 8.14348 138.393 9.80897C140.204 11.4867 141.357 13.8114 141.629 16.3321H121.618C121.911 13.7798 123.105 11.4359 124.964 9.76505C126.823 8.09415 129.212 7.21818 131.657 7.31073ZM159.475 37.8448H184.995V31.8977H166.163V0H159.475V37.8448Z" fill="black"/>
<path d="M225.396 15.1661C224.208 15.1661 223.133 14.9106 222.171 14.3995C221.218 13.8773 220.469 13.1606 219.92 12.2495C219.382 11.3384 219.113 10.3106 219.113 9.16615C219.113 8.0217 219.387 6.99393 219.936 6.08281C220.486 5.1717 221.235 4.4606 222.187 3.94948C223.15 3.42726 224.225 3.16615 225.413 3.16615C226.375 3.16615 227.255 3.33281 228.05 3.66615C228.844 3.99948 229.516 4.48281 230.066 5.11615L228.655 6.43281C227.803 5.5217 226.756 5.06615 225.513 5.06615C224.707 5.06615 223.985 5.24393 223.346 5.59948C222.708 5.94393 222.209 6.42726 221.851 7.04948C221.494 7.6717 221.314 8.37726 221.314 9.16615C221.314 9.95503 221.494 10.6606 221.851 11.2828C222.209 11.905 222.708 12.3939 223.346 12.7495C223.985 13.0939 224.707 13.2661 225.513 13.2661C226.756 13.2661 227.803 12.805 228.655 11.8828L230.066 13.2161C229.516 13.8495 228.839 14.3328 228.033 14.6661C227.238 14.9995 226.358 15.1661 225.396 15.1661ZM238.851 15.1161C237.944 15.1161 237.127 14.9217 236.398 14.5328C235.671 14.1439 235.1 13.605 234.685 12.9161C234.282 12.2161 234.08 11.4273 234.08 10.5495C234.08 9.6717 234.282 8.88836 234.685 8.19948C235.1 7.5106 235.671 6.9717 236.398 6.58281C237.127 6.19393 237.944 5.99948 238.851 5.99948C239.77 5.99948 240.593 6.19393 241.32 6.58281C242.049 6.9717 242.614 7.5106 243.017 8.19948C243.432 8.88836 243.638 9.6717 243.638 10.5495C243.638 11.4273 243.432 12.2161 243.017 12.9161C242.614 13.605 242.049 14.1439 241.32 14.5328C240.593 14.9217 239.77 15.1161 238.851 15.1161ZM238.851 13.3328C239.624 13.3328 240.262 13.0773 240.766 12.5661C241.27 12.055 241.522 11.3828 241.522 10.5495C241.522 9.71615 241.27 9.04393 240.766 8.53281C240.262 8.0217 239.624 7.76615 238.851 7.76615C238.078 7.76615 237.44 8.0217 236.936 8.53281C236.444 9.04393 236.197 9.71615 236.197 10.5495C236.197 11.3828 236.444 12.055 236.936 12.5661C237.44 13.0773 238.078 13.3328 238.851 13.3328ZM253.929 5.99948C255.059 5.99948 255.966 6.32726 256.65 6.98281C257.332 7.63836 257.675 8.6106 257.675 9.89948V14.9995H255.575V10.1661C255.575 9.38836 255.39 8.80503 255.021 8.41615C254.651 8.01615 254.124 7.81615 253.442 7.81615C252.669 7.81615 252.058 8.04948 251.611 8.51615C251.162 8.9717 250.939 9.63281 250.939 10.4995V14.9995H248.839V6.09948H250.838V7.24948C251.184 6.83836 251.621 6.52726 252.148 6.31615C252.674 6.10503 253.267 5.99948 253.929 5.99948ZM266.301 15.1161C265.573 15.1161 264.863 15.0217 264.167 14.8328C263.474 14.6439 262.919 14.405 262.504 14.1161L263.311 12.5328C263.714 12.7995 264.196 13.0161 264.755 13.1828C265.326 13.3384 265.887 13.4161 266.435 13.4161C267.69 13.4161 268.316 13.0884 268.316 12.4328C268.316 12.1217 268.155 11.905 267.829 11.7828C267.517 11.6606 267.006 11.5439 266.301 11.4328C265.562 11.3217 264.957 11.1939 264.486 11.0495C264.028 10.905 263.625 10.655 263.277 10.2995C262.941 9.93281 262.773 9.42726 262.773 8.78281C262.773 7.93836 263.126 7.26615 263.831 6.76615C264.549 6.25503 265.511 5.99948 266.721 5.99948C267.337 5.99948 267.954 6.0717 268.568 6.21615C269.185 6.34948 269.689 6.53281 270.08 6.76615L269.274 8.34948C268.513 7.90503 267.656 7.68281 266.704 7.68281C266.089 7.68281 265.619 7.77726 265.293 7.96615C264.98 8.14393 264.822 8.38281 264.822 8.68281C264.822 9.01615 264.99 9.25503 265.326 9.39948C265.674 9.53281 266.207 9.6606 266.922 9.78281C267.639 9.89393 268.227 10.0217 268.686 10.1661C269.146 10.3106 269.538 10.555 269.862 10.8995C270.198 11.2439 270.366 11.7328 270.366 12.3661C270.366 13.1995 270.003 13.8661 269.274 14.3661C268.547 14.8661 267.555 15.1161 266.301 15.1161ZM284.051 6.09948V14.9995H282.052V13.8661C281.716 14.2661 281.296 14.5773 280.792 14.7995C280.288 15.0106 279.744 15.1161 279.163 15.1161C277.964 15.1161 277.018 14.7884 276.324 14.1328C275.64 13.4661 275.299 12.4828 275.299 11.1828V6.09948H277.399V10.8995C277.399 11.6995 277.577 12.2995 277.937 12.6995C278.306 13.0884 278.827 13.2828 279.499 13.2828C280.248 13.2828 280.843 13.055 281.279 12.5995C281.726 12.1328 281.951 11.4661 281.951 10.5995V6.09948H284.051ZM289.991 2.63281H292.091V14.9995H289.991V2.63281ZM303.874 14.5161C303.628 14.7161 303.325 14.8661 302.967 14.9661C302.62 15.0661 302.25 15.1161 301.859 15.1161C300.873 15.1161 300.112 14.8606 299.574 14.3495C299.037 13.8384 298.768 13.0939 298.768 12.1161V7.83281H297.29V6.16615H298.768V4.13281H300.868V6.16615H303.27V7.83281H300.868V12.0661C300.868 12.4995 300.973 12.8328 301.187 13.0661C301.398 13.2884 301.708 13.3995 302.111 13.3995C302.581 13.3995 302.972 13.2773 303.287 13.0328L303.874 14.5161ZM308.793 6.09948H310.893V14.9995H308.793V6.09948ZM309.851 4.63281C309.47 4.63281 309.151 4.51615 308.894 4.28281C308.637 4.03836 308.507 3.73836 308.507 3.38281C308.507 3.02726 308.637 2.73281 308.894 2.49948C309.151 2.25503 309.47 2.13281 309.851 2.13281C310.233 2.13281 310.552 2.24948 310.809 2.48281C311.066 2.70503 311.195 2.98836 311.195 3.33281C311.195 3.69948 311.066 4.0106 310.809 4.26615C310.562 4.5106 310.243 4.63281 309.851 4.63281ZM321.931 5.99948C323.061 5.99948 323.968 6.32726 324.652 6.98281C325.334 7.63836 325.677 8.6106 325.677 9.89948V14.9995H323.577V10.1661C323.577 9.38836 323.392 8.80503 323.023 8.41615C322.653 8.01615 322.126 7.81615 321.444 7.81615C320.671 7.81615 320.059 8.04948 319.613 8.51615C319.164 8.9717 318.941 9.63281 318.941 10.4995V14.9995H316.841V6.09948H318.84V7.24948C319.186 6.83836 319.623 6.52726 320.15 6.31615C320.676 6.10503 321.269 5.99948 321.931 5.99948ZM340.516 6.09948V13.6495C340.516 16.7828 338.903 18.3495 335.678 18.3495C334.816 18.3495 333.998 18.2383 333.226 18.0161C332.453 17.805 331.815 17.494 331.311 17.0828L332.251 15.5161C332.644 15.8384 333.137 16.0939 333.73 16.2828C334.334 16.4828 334.946 16.5828 335.561 16.5828C336.547 16.5828 337.269 16.3606 337.728 15.9161C338.188 15.4717 338.416 14.7939 338.416 13.8828V13.4161C338.058 13.805 337.622 14.0995 337.106 14.2995C336.592 14.4995 336.026 14.5995 335.409 14.5995C334.559 14.5995 333.787 14.4217 333.091 14.0661C332.409 13.6995 331.865 13.1884 331.462 12.5328C331.07 11.8773 330.874 11.1273 330.874 10.2828C330.874 9.43836 331.07 8.69393 331.462 8.04948C331.865 7.39393 332.409 6.88836 333.091 6.53281C333.787 6.17726 334.559 5.99948 335.409 5.99948C336.059 5.99948 336.647 6.10503 337.173 6.31615C337.711 6.52726 338.159 6.84948 338.517 7.28281V6.09948H340.516ZM335.729 12.8328C336.525 12.8328 337.173 12.5995 337.677 12.1328C338.193 11.655 338.45 11.0384 338.45 10.2828C338.45 9.53836 338.193 8.93281 337.677 8.46615C337.173 7.99948 336.525 7.76615 335.729 7.76615C334.922 7.76615 334.262 7.99948 333.746 8.46615C333.242 8.93281 332.99 9.53836 332.99 10.2828C332.99 11.0384 333.242 11.655 333.746 12.1328C334.262 12.5995 334.922 12.8328 335.729 12.8328ZM227.983 30.6995H230.049V35.3495C229.444 35.8273 228.739 36.194 227.932 36.4495C227.126 36.705 226.298 36.8328 225.446 36.8328C224.248 36.8328 223.167 36.5773 222.204 36.0661C221.242 35.544 220.486 34.8273 219.936 33.9161C219.387 33.005 219.113 31.9773 219.113 30.8328C219.113 29.6883 219.387 28.6606 219.936 27.7495C220.486 26.8383 221.242 26.1273 222.204 25.6161C223.178 25.094 224.27 24.8328 225.48 24.8328C226.466 24.8328 227.361 24.994 228.167 25.3161C228.974 25.6383 229.651 26.1106 230.2 26.7328L228.823 28.0661C227.927 27.1773 226.845 26.7328 225.581 26.7328C224.752 26.7328 224.013 26.905 223.363 27.2495C222.725 27.594 222.221 28.0773 221.851 28.6995C221.494 29.3216 221.314 30.0328 221.314 30.8328C221.314 31.6106 221.494 32.3106 221.851 32.9328C222.221 33.555 222.725 34.044 223.363 34.3995C224.013 34.755 224.746 34.9328 225.564 34.9328C226.483 34.9328 227.289 34.7328 227.983 34.3328V30.6995ZM237.919 29.0661C238.523 28.1328 239.587 27.6661 241.11 27.6661V29.6495C240.931 29.6161 240.768 29.5995 240.623 29.5995C239.805 29.5995 239.167 29.8383 238.708 30.3161C238.248 30.7828 238.019 31.4606 238.019 32.3495V36.6661H235.92V27.7661H237.919V29.0661ZM250.032 36.7828C249.125 36.7828 248.308 36.5883 247.579 36.1995C246.852 35.8106 246.281 35.2716 245.866 34.5828C245.463 33.8828 245.261 33.094 245.261 32.2161C245.261 31.3383 245.463 30.555 245.866 29.8661C246.281 29.1773 246.852 28.6383 247.579 28.2495C248.308 27.8606 249.125 27.6661 250.032 27.6661C250.951 27.6661 251.774 27.8606 252.501 28.2495C253.23 28.6383 253.794 29.1773 254.198 29.8661C254.613 30.555 254.819 31.3383 254.819 32.2161C254.819 33.094 254.613 33.8828 254.198 34.5828C253.794 35.2716 253.23 35.8106 252.501 36.1995C251.774 36.5883 250.951 36.7828 250.032 36.7828ZM250.032 34.9995C250.804 34.9995 251.443 34.744 251.947 34.2328C252.451 33.7216 252.703 33.0495 252.703 32.2161C252.703 31.3828 252.451 30.7106 251.947 30.1995C251.443 29.6883 250.804 29.4328 250.032 29.4328C249.259 29.4328 248.621 29.6883 248.117 30.1995C247.625 30.7106 247.378 31.3828 247.378 32.2161C247.378 33.0495 247.625 33.7216 248.117 34.2328C248.621 34.744 249.259 34.9995 250.032 34.9995ZM268.703 27.7661V36.6661H266.704V35.5328C266.368 35.9328 265.948 36.244 265.444 36.4661C264.94 36.6773 264.397 36.7828 263.815 36.7828C262.617 36.7828 261.671 36.455 260.976 35.7995C260.294 35.1328 259.951 34.1495 259.951 32.8495V27.7661H262.051V32.5661C262.051 33.3661 262.23 33.9661 262.588 34.3661C262.958 34.755 263.479 34.9495 264.15 34.9495C264.901 34.9495 265.494 34.7216 265.931 34.2661C266.38 33.7995 266.603 33.1328 266.603 32.2661V27.7661H268.703ZM279.616 27.6661C280.49 27.6661 281.268 27.855 281.951 28.2328C282.645 28.6106 283.189 29.144 283.581 29.8328C283.972 30.5216 284.169 31.3161 284.169 32.2161C284.169 33.1161 283.972 33.9161 283.581 34.6161C283.189 35.305 282.645 35.8383 281.951 36.2161C281.268 36.594 280.49 36.7828 279.616 36.7828C278.407 36.7828 277.449 36.3828 276.744 35.5828V39.8995H274.644V27.7661H276.643V28.9328C276.991 28.5106 277.416 28.194 277.92 27.9828C278.436 27.7716 279 27.6661 279.616 27.6661ZM279.381 34.9995C280.154 34.9995 280.787 34.744 281.279 34.2328C281.783 33.7216 282.035 33.0495 282.035 32.2161C282.035 31.3828 281.783 30.7106 281.279 30.1995C280.787 29.6883 280.154 29.4328 279.381 29.4328C278.877 29.4328 278.424 29.5495 278.021 29.7828C277.617 30.005 277.298 30.3273 277.063 30.7495C276.828 31.1716 276.71 31.6606 276.71 32.2161C276.71 32.7716 276.828 33.2606 277.063 33.6828C277.298 34.105 277.617 34.4328 278.021 34.6661C278.424 34.8883 278.877 34.9995 279.381 34.9995Z" fill="black"/>
</g>
</g>
<defs>
<clipPath id="clip0_550_2813">
<rect width="341" height="40" fill="white"/>
</clipPath>
</defs>
</svg>
